<svg width="25" height="20" viewBox="0 0 25 20" fill="none" xmlns="http://www.w3.org/2000/svg">
<path d="M7.684 19.208C6.26267 19.208 4.98867 18.844 3.862 18.116C2.75267 17.388 1.86867 16.3307 1.21 14.944C0.568667 13.5573 0.248 11.876 0.248 9.9C0.248 7.924 0.568667 6.24267 1.21 4.856C1.86867 3.46933 2.75267 2.412 3.862 1.684C4.98867 0.956 6.26267 0.592 7.684 0.592C9.088 0.592 10.3533 0.956 11.48 1.684C12.6067 2.412 13.4907 3.46933 14.132 4.856C14.7733 6.24267 15.094 7.924 15.094 9.9C15.094 11.876 14.7733 13.5573 14.132 14.944C13.4907 16.3307 12.6067 17.388 11.48 18.116C10.3533 18.844 9.088 19.208 7.684 19.208ZM7.684 16.894C8.63733 16.894 9.46933 16.634 10.18 16.114C10.908 15.594 11.4713 14.814 11.87 13.774C12.286 12.734 12.494 11.4427 12.494 9.9C12.494 8.35733 12.286 7.066 11.87 6.026C11.4713 4.986 10.908 4.206 10.18 3.686C9.46933 3.166 8.63733 2.906 7.684 2.906C6.73067 2.906 5.89 3.166 5.162 3.686C4.434 4.206 3.862 4.986 3.446 6.026C3.04733 7.066 2.848 8.35733 2.848 9.9C2.848 11.4427 3.04733 12.734 3.446 13.774C3.862 14.814 4.434 15.594 5.162 16.114C5.89 16.634 6.73067 16.894 7.684 16.894ZM21.9578 19V1.84L23.0758 3.062H17.8498V0.799999H24.5318V19H21.9578Z" fill="#9B9B9B"/>
</svg>
