<svg width="27" height="118" viewBox="0 0 27 118" fill="none" xmlns="http://www.w3.org/2000/svg">
<path d="M15.146 17.4257V9.48996H18.4038L18.8881 6.38285H15.146V4.40375C15.146 3.50716 15.45 2.89329 17.0159 2.89329H19V0.123131C18.0346 0.0381105 17.0642 -0.00294155 16.0933 0.000163795C13.2137 0.000163795 11.2366 1.44479 11.2366 4.09682V6.37704H8V9.48415H11.2437V17.4257H15.146Z" fill="white"/>
<path d="M22.9452 51.3949C22.9585 51.5477 22.9585 51.6997 22.9585 51.8517C22.9585 56.5023 18.8337 61.8613 11.2955 61.8613C8.97313 61.8613 6.81559 61.284 5 60.2814C5.32974 60.3137 5.64726 60.325 5.99023 60.325C7.83533 60.3288 9.62818 59.7994 11.0798 58.822C10.2243 58.8087 9.39505 58.5665 8.70775 58.1292C8.02046 57.6918 7.50945 57.0813 7.24608 56.3827C7.49949 56.415 7.75392 56.4368 8.02056 56.4368C8.38795 56.4368 8.75738 56.3931 9.10035 56.3172C8.17195 56.1563 7.33714 55.7245 6.73786 55.0951C6.13857 54.4657 5.81182 53.6776 5.81315 52.8648V52.8211C6.35966 53.0822 6.99369 53.2455 7.66538 53.2674C7.10268 52.9465 6.64128 52.5111 6.32235 51.9999C6.00342 51.4888 5.83687 50.9179 5.83757 50.3381C5.83757 49.6848 6.0401 49.0857 6.39528 48.5634C7.42534 49.6508 8.71006 50.5404 10.1662 51.1745C11.6224 51.8087 13.2175 52.1732 14.8484 52.2447C14.7853 51.9827 14.7466 51.711 14.7466 51.4386C14.7463 50.9765 14.8522 50.519 15.0581 50.092C15.264 49.6651 15.5659 49.2772 15.9467 48.9505C16.3274 48.6238 16.7794 48.3647 17.2769 48.188C17.7743 48.0113 18.3075 47.9204 18.8459 47.9207C20.0265 47.9207 21.092 48.3451 21.841 49.0316C22.7588 48.8793 23.6389 48.5918 24.4423 48.1818C24.1364 48.9947 23.4956 49.6841 22.6399 50.1207C23.4539 50.041 24.2494 49.8573 25 49.5757C24.4394 50.2771 23.7447 50.8921 22.9452 51.3949Z" fill="white"/>
<g filter="url(#filter0_d_247_42)">
<path d="M12.999 95.377C11.7726 95.377 10.5965 95.8641 9.72934 96.7313C8.86217 97.5985 8.375 98.7746 8.375 100.001C8.375 101.227 8.86217 102.403 9.72934 103.271C10.5965 104.138 11.7726 104.625 12.999 104.625C14.2254 104.625 15.4015 104.138 16.2687 103.271C17.1358 102.403 17.623 101.227 17.623 100.001C17.623 98.7746 17.1358 97.5985 16.2687 96.7313C15.4015 95.8641 14.2254 95.377 12.999 95.377V95.377ZM12.999 103.004C12.2023 103.004 11.4382 102.687 10.8749 102.124C10.3115 101.561 9.995 100.797 9.995 100C9.995 99.2032 10.3115 98.4392 10.8749 97.8758C11.4382 97.3124 12.2023 96.996 12.999 96.996C13.7957 96.996 14.5598 97.3124 15.1231 97.8758C15.6865 98.4392 16.003 99.2032 16.003 100C16.003 100.797 15.6865 101.561 15.1231 102.124C14.5598 102.687 13.7957 103.004 12.999 103.004V103.004Z" fill="white"/>
<path d="M17.806 96.2849C18.4014 96.2849 18.884 95.8023 18.884 95.2069C18.884 94.6115 18.4014 94.1289 17.806 94.1289C17.2107 94.1289 16.728 94.6115 16.728 95.2069C16.728 95.8023 17.2107 96.2849 17.806 96.2849Z" fill="white"/>
<path d="M21.533 94.1109C21.3015 93.5131 20.9477 92.9702 20.4943 92.5169C20.0409 92.0637 19.4979 91.7102 18.9 91.4789C18.2003 91.2162 17.4611 91.0742 16.714 91.0589C15.751 91.0169 15.446 91.0049 13.004 91.0049C10.562 91.0049 10.249 91.0049 9.29395 91.0589C8.54734 91.0734 7.80871 91.2155 7.10995 91.4789C6.51189 91.7099 5.96872 92.0634 5.51529 92.5166C5.06186 92.9699 4.70818 93.5129 4.47695 94.1109C4.21426 94.8105 4.07257 95.5497 4.05795 96.2969C4.01495 97.2589 4.00195 97.5639 4.00195 100.007C4.00195 102.449 4.00195 102.76 4.05795 103.717C4.07295 104.465 4.21395 105.203 4.47695 105.904C4.70883 106.502 5.06285 107.044 5.51639 107.498C5.96993 107.951 6.51302 108.304 7.11095 108.536C7.80839 108.809 8.54732 108.961 9.29595 108.986C10.259 109.028 10.564 109.041 13.006 109.041C15.448 109.041 15.761 109.041 16.716 108.986C17.4631 108.971 18.2022 108.829 18.902 108.567C19.4997 108.335 20.0426 107.981 20.4959 107.528C20.9493 107.075 21.3031 106.532 21.535 105.934C21.798 105.234 21.939 104.496 21.954 103.748C21.997 102.786 22.01 102.481 22.01 100.038C22.01 97.5949 22.01 97.2849 21.954 96.3279C21.9423 95.5702 21.7999 94.8201 21.533 94.1109V94.1109ZM20.315 103.643C20.3085 104.219 20.2033 104.79 20.004 105.331C19.8538 105.72 19.6239 106.073 19.329 106.368C19.0342 106.662 18.6809 106.892 18.292 107.042C17.7572 107.24 17.1923 107.346 16.622 107.353C15.672 107.397 15.404 107.408 12.968 107.408C10.53 107.408 10.281 107.408 9.31295 107.353C8.74288 107.346 8.17828 107.241 7.64395 107.042C7.25364 106.893 6.89895 106.664 6.60284 106.369C6.30673 106.074 6.07579 105.72 5.92495 105.331C5.7284 104.796 5.62326 104.232 5.61395 103.662C5.57095 102.712 5.56095 102.444 5.56095 100.008C5.56095 97.5709 5.56095 97.3219 5.61395 96.3529C5.62042 95.7769 5.72561 95.2063 5.92495 94.6659C6.22995 93.8769 6.85495 93.2559 7.64395 92.9539C8.17854 92.756 8.74298 92.6508 9.31295 92.6429C10.264 92.5999 10.531 92.5879 12.968 92.5879C15.405 92.5879 15.655 92.5879 16.622 92.6429C17.1924 92.6497 17.7573 92.755 18.292 92.9539C18.6809 93.1042 19.0341 93.3341 19.3289 93.6289C19.6238 93.9237 19.8537 94.277 20.004 94.6659C20.2005 95.2008 20.3056 95.765 20.315 96.3349C20.358 97.2859 20.369 97.5529 20.369 99.9899C20.369 102.426 20.369 102.688 20.326 103.644H20.315V103.643Z" fill="white"/>
</g>
<defs>
<filter id="filter0_d_247_42" x="-3" y="88" width="32" height="32" filterUnits="userSpaceOnUse" color-interpolation-filters="sRGB">
<feFlood flood-opacity="0" result="BackgroundImageFix"/>
<feColorMatrix in="SourceAlpha" type="matrix" values="0 0 0 0 0 0 0 0 0 0 0 0 0 0 0 0 0 0 127 0" result="hardAlpha"/>
<feOffset dy="4"/>
<feGaussianBlur stdDeviation="2"/>
<feComposite in2="hardAlpha" operator="out"/>
<feColorMatrix type="matrix" values="0 0 0 0 0 0 0 0 0 0 0 0 0 0 0 0 0 0 0.25 0"/>
<feBlend mode="normal" in2="BackgroundImageFix" result="effect1_dropShadow_247_42"/>
<feBlend mode="normal" in="SourceGraphic" in2="effect1_dropShadow_247_42" result="shape"/>
</filter>
</defs>
</svg>
