<svg width="22" height="30" viewBox="0 0 22 30" fill="none" xmlns="http://www.w3.org/2000/svg">
<path d="M11 4.97339C9.99265 4.97339 9.0079 5.27211 8.17031 5.83177C7.33271 6.39143 6.67989 7.1869 6.29439 8.11759C5.90888 9.04827 5.80802 10.0724 6.00455 11.0604C6.20107 12.0484 6.68617 12.9559 7.39848 13.6683C8.1108 14.3806 9.01834 14.8657 10.0064 15.0622C10.9944 15.2587 12.0185 15.1579 12.9491 14.7724C13.8798 14.3868 14.6753 13.734 15.235 12.8964C15.7946 12.0588 16.0933 11.0741 16.0933 10.0667C16.0933 8.71589 15.5567 7.42038 14.6015 6.46519C13.6464 5.51001 12.3508 4.97339 11 4.97339V4.97339ZM11 13.3823C10.3443 13.3823 9.70323 13.1878 9.15799 12.8235C8.61275 12.4592 8.18779 11.9414 7.93684 11.3355C7.68589 10.7297 7.62023 10.063 7.74816 9.41989C7.8761 8.77673 8.19187 8.18596 8.65556 7.72227C9.11925 7.25858 9.71002 6.94281 10.3532 6.81487C10.9963 6.68694 11.663 6.7526 12.2688 7.00355C12.8747 7.25449 13.3925 7.67946 13.7568 8.2247C14.1211 8.76994 14.3156 9.41097 14.3156 10.0667C14.3132 10.9445 13.9629 11.7856 13.3413 12.4054C12.7198 13.0253 11.8778 13.3734 11 13.3734V13.3823Z" fill="white" fill-opacity="0.3"/>
<path d="M11 0.777832C8.23127 0.780145 5.57597 1.878 3.61403 3.83161C1.6521 5.78521 0.542959 8.43582 0.52887 11.2045C0.52887 15.3556 2.85776 18.8312 4.56442 21.3645L4.87554 21.8267C6.57356 24.2877 8.39515 26.6611 10.3333 28.9378L11.0089 29.7289L11.6844 28.9378C13.6223 26.6609 15.4439 24.2875 17.1422 21.8267L17.4533 21.3556C19.1511 18.8223 21.48 15.3556 21.48 11.2045C21.4659 8.43428 20.3555 5.78233 18.3917 3.82847C16.4278 1.87461 13.7702 0.777796 11 0.777832V0.777832ZM15.9689 20.3334L15.6489 20.8045C14.12 23.0978 12.0933 25.6667 11 26.9378C9.95109 25.6667 7.87998 23.0978 6.35109 20.8045L6.03998 20.3334C4.46665 17.9867 2.30665 14.7778 2.30665 11.1689C2.30665 10.0273 2.53151 8.89687 2.96839 7.84215C3.40527 6.78743 4.04561 5.82908 4.85287 5.02183C5.66012 4.21458 6.61846 3.57423 7.67318 3.13735C8.72791 2.70047 9.85835 2.47561 11 2.47561C12.1416 2.47561 13.272 2.70047 14.3268 3.13735C15.3815 3.57423 16.3398 4.21458 17.1471 5.02183C17.9543 5.82908 18.5947 6.78743 19.0316 7.84215C19.4685 8.89687 19.6933 10.0273 19.6933 11.1689C19.6933 14.8134 17.5422 18.0223 15.9689 20.3334V20.3334Z" fill="white" fill-opacity="0.3"/>
</svg>
